<?xml version="1.0" standalone="no"?>
<!DOCTYPE svg PUBLIC "-//W3C//DTD SVG 20010904//EN"
 "http://www.w3.org/TR/2001/REC-SVG-20010904/DTD/svg10.dtd">
<svg version="1.0" xmlns="http://www.w3.org/2000/svg"
 width="260.000000pt" height="260.000000pt" viewBox="0 0 260.000000 260.000000"
 preserveAspectRatio="xMidYMid meet">
<metadata>
Created by potrace 1.14, written by Peter Selinger 2001-2017
</metadata>
<g transform="translate(0.000000,260.000000) scale(0.100000,-0.100000)"
fill="#000000" stroke="none">
<path d="M1081 2584 c-259 -44 -499 -170 -692 -363 -256 -257 -382 -561 -382
-921 0 -222 45 -409 145 -601 181 -349 504 -592 898 -676 119 -25 381 -25 500
0 395 84 716 326 898 676 100 192 145 379 145 601 0 274 -72 509 -226 740 -64
96 -241 273 -337 337 -156 104 -343 179 -520 208 -116 18 -315 18 -429 -1z
m643 -157 c107 -140 276 -745 361 -1292 47 -304 44 -512 -12 -690 -43 -137
-112 -223 -220 -272 -45 -21 -66 -24 -118 -21 -55 3 -69 9 -119 46 -125 94
-224 253 -392 622 -58 129 -116 255 -127 280 l-22 45 -6 -240 c-6 -245 -15
-316 -59 -459 -30 -96 -121 -175 -202 -176 -72 0 -141 115 -207 348 -80 282
-133 594 -134 797 -1 134 12 177 61 210 45 31 78 32 93 3 10 -18 8 -24 -7 -35
-10 -7 -21 -13 -26 -13 -23 0 5 -241 57 -486 30 -143 92 -373 134 -498 29 -83
78 -182 87 -174 10 11 34 159 45 278 10 113 9 181 -6 422 -10 157 -15 302 -11
320 11 61 103 121 147 98 31 -17 95 -137 226 -422 250 -546 303 -645 399 -748
56 -60 132 -110 166 -110 89 0 162 359 137 668 -31 387 -154 1016 -269 1375
-23 71 -39 135 -36 143 9 24 34 16 60 -19z"/>
</g>
</svg>
