<svg 
    xmlns="http://www.w3.org/2000/svg" 
    xmlns:xlink="http://www.w3.org/1999/xlink" 
    zoomAndPan="magnify" viewBox="0 0 60 44.999999" 
    preserveAspectRatio="xMidYMid meet" version="1.0">
    <defs><g/></defs><g fill="#e5c58f" fill-opacity="1">
    <g transform="translate(23.754664, 32.611468)"><g><path d="M -0.792969 -8.132812 C -2.117188 -11.96875 -3.042969 -15.902344 -3.519531 -19.933594 C -3.558594 -20.335938 -3.546875 -20.742188 -3.574219 -21.121094 C -3.300781 -21.285156 -3.078125 -21.386719 -2.871094 -21.511719 C -3.074219 -22.046875 -3.191406 -22.144531 -3.535156 -22.054688 C -4.226562 -21.839844 -4.730469 -21.398438 -4.808594 -20.667969 C -4.910156 -19.984375 -4.964844 -19.269531 -4.914062 -18.5625 C -4.671875 -14.730469 -3.878906 -10.972656 -2.699219 -7.332031 C -2.433594 -6.554688 -2.148438 -5.789062 -1.597656 -5.152344 C -1.046875 -4.515625 -0.570312 -4.429688 0.183594 -4.738281 C 1.050781 -5.140625 1.671875 -5.765625 1.933594 -6.660156 C 2.175781 -7.488281 2.367188 -8.3125 2.511719 -9.164062 C 2.800781 -11.011719 2.804688 -12.859375 2.722656 -14.710938 C 2.710938 -15.019531 2.71875 -15.335938 2.730469 -15.742188 C 2.886719 -15.578125 2.945312 -15.527344 2.960938 -15.453125 C 3.863281 -13.464844 4.765625 -11.476562 5.679688 -9.464844 C 6.347656 -8.015625 7.109375 -6.597656 8.066406 -5.324219 C 8.515625 -4.710938 9.0625 -4.128906 9.667969 -3.640625 C 10.507812 -2.945312 11.46875 -2.8125 12.5 -3.226562 C 13.742188 -3.710938 14.605469 -4.597656 15.140625 -5.796875 C 15.597656 -6.835938 15.835938 -7.914062 15.957031 -9.039062 C 16.128906 -10.703125 16.070312 -12.371094 15.851562 -14.027344 C 15.371094 -17.546875 14.675781 -20.992188 13.796875 -24.417969 C 13.257812 -26.507812 12.65625 -28.5625 11.789062 -30.542969 C 11.496094 -31.222656 11.207031 -31.898438 10.664062 -32.425781 C 10.179688 -32.335938 10.222656 -32.023438 10.332031 -31.746094 C 10.558594 -31.03125 10.832031 -30.339844 11.039062 -29.613281 C 12.523438 -24.507812 13.5 -19.296875 14.136719 -14 C 14.320312 -12.40625 14.363281 -10.8125 14.207031 -9.214844 C 14.132812 -8.289062 13.9375 -7.378906 13.746094 -6.46875 C 13.609375 -5.933594 13.375 -5.425781 13.125 -4.933594 C 12.789062 -4.308594 12.460938 -4.195312 11.855469 -4.546875 C 11.339844 -4.835938 10.851562 -5.226562 10.4375 -5.632812 C 9.214844 -6.917969 8.402344 -8.476562 7.660156 -10.050781 C 6.355469 -12.761719 5.144531 -15.503906 3.878906 -18.242188 C 3.542969 -18.949219 3.164062 -19.632812 2.742188 -20.292969 C 2.480469 -20.730469 2.179688 -20.808594 1.699219 -20.660156 C 0.90625 -20.417969 0.480469 -19.847656 0.457031 -18.984375 C 0.4375 -18.632812 0.488281 -18.265625 0.515625 -17.882812 C 0.597656 -16.511719 0.710938 -15.132812 0.789062 -13.761719 C 0.898438 -11.722656 0.84375 -9.675781 0.480469 -7.667969 C 0.40625 -7.3125 0.3125 -6.945312 0.183594 -6.355469 C -0.339844 -7.039062 -0.597656 -7.566406 -0.792969 -8.132812 Z M -0.792969 -8.132812 "/></g></g></g><g fill="#ffffff" fill-opacity="1"><g transform="translate(4.801182, 42.429445)"><g><path d="M 2.386719 0 L 3.445312 0 L 5.152344 -5.464844 L 6.859375 0 L 7.917969 0 L 9.953125 -7.105469 L 9.019531 -7.105469 L 7.324219 -1.246094 L 5.550781 -7.105469 L 4.753906 -7.105469 L 2.984375 -1.246094 L 1.296875 -7.105469 L 0.359375 -7.105469 Z M 2.386719 0 "/></g></g></g><g fill="#ffffff" fill-opacity="1"><g transform="translate(16.417989, 42.429445)"><g><path d="M 1.117188 0 L 2.019531 0 L 2.019531 -7.105469 L 1.117188 -7.105469 Z M 1.117188 0 "/></g></g></g><g fill="#ffffff" fill-opacity="1"><g transform="translate(20.864422, 42.429445)"><g><path d="M 2.019531 -0.824219 L 2.019531 -7.105469 L 1.117188 -7.105469 L 1.117188 0 L 4.488281 0 L 4.488281 -0.824219 Z M 2.019531 -0.824219 "/></g></g></g><g fill="#ffffff" fill-opacity="1"><g transform="translate(26.950807, 42.429445)"><g><path d="M 2.019531 -0.824219 L 2.019531 -7.105469 L 1.117188 -7.105469 L 1.117188 0 L 4.488281 0 L 4.488281 -0.824219 Z M 2.019531 -0.824219 "/></g></g></g><g fill="#ffffff" fill-opacity="1"><g transform="translate(33.037193, 42.429445)"><g><path d="M 1.117188 0 L 2.019531 0 L 2.019531 -7.105469 L 1.117188 -7.105469 Z M 1.117188 0 "/></g></g></g><g fill="#ffffff" fill-opacity="1"><g transform="translate(37.483627, 42.429445)"><g><path d="M 5.675781 0 L 6.621094 0 L 4 -7.105469 L 2.921875 -7.105469 L 0.304688 0 L 1.246094 0 L 1.851562 -1.699219 L 5.066406 -1.699219 Z M 2.140625 -2.496094 L 3.460938 -6.195312 L 4.785156 -2.496094 Z M 2.140625 -2.496094 "/></g></g></g><g fill="#ffffff" fill-opacity="1"><g transform="translate(45.719612, 42.429445)"><g><path d="M 8.628906 0 L 8.09375 -7.105469 L 6.894531 -7.105469 L 4.734375 -1.5625 L 2.578125 -7.105469 L 1.386719 -7.105469 L 0.847656 0 L 1.730469 0 L 2.210938 -5.84375 L 4.464844 0 L 5.007812 0 L 7.277344 -5.863281 L 7.75 0 Z M 8.628906 0 "/></g></g></g><path stroke-linecap="round" transform="matrix(0.749113, 0.000000000000000181, -0.00000000000000026, 1.078652, 5.219326, 44.487964)" fill="none" stroke-linejoin="miter" d="M 0.499823 0.000293786 L 65.581985 0.000293786 " stroke="#e5c58f" stroke-width="1" stroke-opacity="1" stroke-miterlimit="4"/><path stroke-linecap="round" transform="matrix(0.734982, 0, 0, 1.078652, 4.521197, 44.487964)" fill="none" stroke-linejoin="miter" d="M 0.502635 0.000293786 L 12.774402 0.000293786 " stroke="#e55c3e" stroke-width="1" stroke-opacity="1" stroke-miterlimit="4"/>
</svg>